<svg width="27" height="27" viewBox="0 0 27 27" fill="none" xmlns="http://www.w3.org/2000/svg">
<g clip-path="url(#clip0)">
<path d="M15.1875 9.28125C15.1875 9.05747 15.0986 8.84286 14.9404 8.68463C14.7821 8.5264 14.5675 8.4375 14.3438 8.4375C14.12 8.4375 13.9054 8.5264 13.7471 8.68463C13.5889 8.84286 13.5 9.05747 13.5 9.28125V11.8125H10.9688C10.745 11.8125 10.5304 11.9014 10.3721 12.0596C10.2139 12.2179 10.125 12.4325 10.125 12.6562C10.125 12.88 10.2139 13.0946 10.3721 13.2529C10.5304 13.4111 10.745 13.5 10.9688 13.5H13.5V16.0312C13.5 16.255 13.5889 16.4696 13.7471 16.6279C13.9054 16.7861 14.12 16.875 14.3438 16.875C14.5675 16.875 14.7821 16.7861 14.9404 16.6279C15.0986 16.4696 15.1875 16.255 15.1875 16.0312V13.5H17.7188C17.9425 13.5 18.1571 13.4111 18.3154 13.2529C18.4736 13.0946 18.5625 12.88 18.5625 12.6562C18.5625 12.4325 18.4736 12.2179 18.3154 12.0596C18.1571 11.9014 17.9425 11.8125 17.7188 11.8125H15.1875V9.28125Z" fill="#6A3494"/>
<path d="M0.84375 1.6875C0.619974 1.6875 0.405362 1.77639 0.247129 1.93463C0.0888949 2.09286 0 2.30747 0 2.53125C0 2.75503 0.0888949 2.96964 0.247129 3.12787C0.405362 3.28611 0.619974 3.375 0.84375 3.375H2.71688L3.39356 6.08681L5.92144 19.5615C5.95763 19.7549 6.06024 19.9295 6.21154 20.0552C6.36283 20.1809 6.55329 20.2498 6.75 20.25H8.4375C7.54239 20.25 6.68395 20.6056 6.05101 21.2385C5.41808 21.8715 5.0625 22.7299 5.0625 23.625C5.0625 24.5201 5.41808 25.3785 6.05101 26.0115C6.68395 26.6444 7.54239 27 8.4375 27C9.33261 27 10.1911 26.6444 10.824 26.0115C11.4569 25.3785 11.8125 24.5201 11.8125 23.625C11.8125 22.7299 11.4569 21.8715 10.824 21.2385C10.1911 20.6056 9.33261 20.25 8.4375 20.25H20.25C19.3549 20.25 18.4965 20.6056 17.8635 21.2385C17.2306 21.8715 16.875 22.7299 16.875 23.625C16.875 24.5201 17.2306 25.3785 17.8635 26.0115C18.4965 26.6444 19.3549 27 20.25 27C21.1451 27 22.0035 26.6444 22.6365 26.0115C23.2694 25.3785 23.625 24.5201 23.625 23.625C23.625 22.7299 23.2694 21.8715 22.6365 21.2385C22.0035 20.6056 21.1451 20.25 20.25 20.25H21.9375C22.1342 20.2498 22.3247 20.1809 22.476 20.0552C22.6273 19.9295 22.7299 19.7549 22.7661 19.5615L25.2973 6.0615C25.3201 5.93972 25.3158 5.81442 25.2847 5.6945C25.2536 5.57457 25.1965 5.46297 25.1174 5.36761C25.0383 5.27225 24.9392 5.19547 24.8271 5.14274C24.715 5.09001 24.5926 5.06261 24.4688 5.0625H4.87688L4.19344 2.32706C4.14789 2.14445 4.0426 1.9823 3.8943 1.86642C3.746 1.75053 3.56321 1.68755 3.375 1.6875H0.84375ZM7.45031 18.5625L5.23462 6.75H23.4529L21.2372 18.5625H7.45031ZM10.125 23.625C10.125 24.0726 9.94721 24.5018 9.63074 24.8182C9.31427 25.1347 8.88505 25.3125 8.4375 25.3125C7.98995 25.3125 7.56073 25.1347 7.24426 24.8182C6.92779 24.5018 6.75 24.0726 6.75 23.625C6.75 23.1774 6.92779 22.7482 7.24426 22.4318C7.56073 22.1153 7.98995 21.9375 8.4375 21.9375C8.88505 21.9375 9.31427 22.1153 9.63074 22.4318C9.94721 22.7482 10.125 23.1774 10.125 23.625ZM21.9375 23.625C21.9375 24.0726 21.7597 24.5018 21.4432 24.8182C21.1268 25.1347 20.6976 25.3125 20.25 25.3125C19.8024 25.3125 19.3732 25.1347 19.0568 24.8182C18.7403 24.5018 18.5625 24.0726 18.5625 23.625C18.5625 23.1774 18.7403 22.7482 19.0568 22.4318C19.3732 22.1153 19.8024 21.9375 20.25 21.9375C20.6976 21.9375 21.1268 22.1153 21.4432 22.4318C21.7597 22.7482 21.9375 23.1774 21.9375 23.625Z" fill="#6A3494"/>
</g>
<defs>
<clipPath id="clip0">
<rect width="27" height="27" fill="white"/>
</clipPath>
</defs>
</svg>
