<svg width="17" height="19" viewBox="0 0 17 19" fill="none" xmlns="http://www.w3.org/2000/svg">
<path d="M16.5252 16.181L12.3263 11.4304C13.0104 10.2647 13.3707 8.91474 13.3707 7.50697C13.3707 3.58208 10.5483 0.388916 7.07923 0.388916C3.61012 0.388916 0.787781 3.58208 0.787781 7.50697C0.787781 11.4319 3.61012 14.625 7.07923 14.625C8.32355 14.625 9.51672 14.2173 10.547 13.4435L11.7077 14.7566C11.7078 14.7568 11.708 14.757 11.7082 14.7572L14.7459 18.1941C14.9837 18.463 15.2996 18.6111 15.6356 18.6111C15.9716 18.6111 16.2875 18.463 16.5251 18.1942C16.7629 17.9253 16.8939 17.5679 16.8939 17.1875C16.8939 16.8072 16.7629 16.4497 16.5252 16.181ZM10.3991 12.6934C10.3991 12.6935 10.3991 12.6935 10.399 12.6935C9.42804 13.4914 8.28011 13.9132 7.07923 13.9132C3.95703 13.9132 1.41693 11.0394 1.41693 7.50697C1.41693 3.97457 3.95703 1.10072 7.07923 1.10072C10.2014 1.10072 12.7415 3.97457 12.7415 7.50697C12.7415 8.86563 12.3687 10.1644 11.6634 11.263C11.3106 11.813 10.8852 12.2943 10.3991 12.6934ZM11.0591 13.0161C11.3847 12.7148 11.6823 12.378 11.9486 12.0097L12.8411 13.0194C12.5696 13.3819 12.2719 13.7188 11.9515 14.0258L11.0591 13.0161ZM16.0804 17.6907C15.9615 17.8253 15.8035 17.8993 15.6356 17.8993C15.4677 17.8993 15.3097 17.8253 15.1908 17.6907L12.3976 14.5305C12.7161 14.2212 13.0137 13.8845 13.2871 13.5241L16.0804 16.6845C16.1993 16.8188 16.2647 16.9974 16.2647 17.1875C16.2647 17.3776 16.1993 17.5563 16.0804 17.6907Z" fill="#616161"/>
</svg>
